<?xml version="1.0" encoding="utf-8"?>
<!-- Generator: Adobe Illustrator 21.1.0, SVG Export Plug-In . SVG Version: 6.00 Build 0)  -->
<svg version="1.1" id="Layer_1" xmlns="http://www.w3.org/2000/svg" xmlns:xlink="http://www.w3.org/1999/xlink" x="0px" y="0px"
	 viewBox="0 0 89.2 42.8" style="enable-background:new 0 0 89.2 42.8;" xml:space="preserve">
<style type="text/css">
	.st0{fill:#6D9B41;}
	.st1{fill:#5A823B;}
	.st2{fill:#D9D9D9;}
	.st3{fill:#454545;}
</style>
<g id="Black_2_">
	<g>
		<g>
			<path class="st0" d="M18.5,14.4c0.1-0.2,0.3-0.2,0.5-0.2c0.7-0.1,1.4-0.1,2.1-0.1c1.8,0.1,3.5,0.3,5.2,0.8c1.5,0.4,2.9,1.1,4.1,2
				c0.6,0.4,1,0.9,1.5,1.4c0.1,0.1,0.1,0.2,0.3,0.3c0.2-0.3,0.2-0.7,0.3-1c0.3-1.9,0-3.6-1.3-5c-0.8-1-1.8-1.7-3-2.2
				c-2.8-1.1-5.4-0.9-7.8,1c-1.4,1-2.1,2.5-2.2,4.2c-0.1,1.7,0.2,3.2,0.6,4.8c0.7,2.4,1.8,4.7,3.1,6.9c1.9,3.4,4.2,6.7,6.6,9.8
				c0.1,0.1,0.2,0.2,0.2,0.3c-0.1,0.1-0.2,0.1-0.3,0.1c-0.5,0-1,0-1.5,0c-0.2,0-0.4-0.1-0.6-0.3c-2.5-3.3-4.8-6.7-6.7-10.3
				c-1.1-2.1-2.1-4.3-2.8-6.7c-0.4-1.4-0.7-2.7-0.6-4.1c0.2-2.5,1.2-4.7,3.2-6.3c1-0.8,2.3-1.3,3.6-1.5c1.8-0.3,3.5-0.3,5.2,0.3
				c3.4,1.2,5.4,3.6,5.9,7.1c0.2,1.6,0,3-0.6,4.5c-0.1,0.1-0.1,0.3-0.2,0.4c-0.9,0.6-1.9,0.7-2.9,0.9c-3,0.4-5.5-0.5-7.8-2.5
				c-1.4-1.2-2.5-2.5-3.6-4C18.7,14.8,18.6,14.6,18.5,14.4z"/>
			<path class="st0" d="M0,19.6c0.6,0,1.1,0,1.6,0c0.2,0,0.3,0.1,0.3,0.2C1.9,20,2,20.2,2,20.4c0.4,1.2,1.3,2,2.4,2.4
				c1.2,0.5,2.5,0.7,3.8,0.6c0.7,0,1.5-0.2,2.2-0.5c0.5-0.2,0.9-0.5,1.3-0.8c1.1-0.9,1.2-3.1-0.4-4.1c-0.8-0.4-1.6-0.7-2.5-0.9
				c-1.1-0.2-2.1-0.4-3.2-0.5c-0.7-0.1-1.5-0.3-2.2-0.6C3.3,16,3.2,16,3,15.9c-2.8-1.3-2.5-4.4-1.1-5.9c0.7-0.7,1.4-1.2,2.4-1.5
				c2.1-0.6,4.1-0.7,6.2,0.1c2,0.7,3.1,2.2,3.6,4.3c0.1,0.3,0,0.3-0.3,0.3c-0.4,0-0.8,0-1.2,0c-0.2,0-0.3-0.1-0.4-0.3
				c0,0,0-0.1,0-0.1c-0.4-1.3-1.3-2.2-2.7-2.7c-1.6-0.5-3.2-0.5-4.7,0.1c-0.4,0.1-0.7,0.3-1,0.6c-0.5,0.4-0.8,0.9-0.9,1.5
				c-0.1,0.8,0.2,1.4,0.9,1.8c0.6,0.4,1.3,0.6,2,0.7c1,0.2,2.1,0.3,3.1,0.5c0.9,0.2,1.7,0.4,2.5,0.7c0.5,0.2,1,0.5,1.4,0.8
				c1.3,1,1.8,2.3,1.6,3.9c-0.2,1.6-1.1,2.8-2.5,3.5c-1.1,0.6-2.2,0.9-3.4,0.9c-1.6,0.1-3.2-0.1-4.7-0.7c-2-0.9-3.3-2.4-3.6-4.6
				C0.1,19.8,0,19.7,0,19.6z"/>
			<path class="st0" d="M76.7,23.1c-0.2,0-0.2,0.1-0.3,0.2c-1.1,1.1-2.4,1.7-4,1.9c-1.7,0.2-3.2-0.1-4.7-0.9
				c-1.8-1.1-2.8-2.7-3.1-4.7c-0.1-0.5-0.1-1-0.1-1.4c0-3.1,0-6.2,0-9.2c0-0.1,0-0.2,0-0.3c0-0.1,0.1-0.2,0.2-0.2c0.5,0,1,0,1.5,0
				c0.1,0,0.2,0.1,0.2,0.2c0,0.1,0,0.2,0,0.4c0,3.1,0,6.3,0,9.4c0,1.2,0.3,2.3,1.1,3.3c0.9,1.1,2,1.6,3.4,1.8c1.5,0.2,2.8-0.1,4-1.1
				c1.3-1,1.8-2.4,1.8-4c0-1.9,0-3.8,0-5.6c0-1.3,0-2.6,0-4c0-0.3,0-0.3,0.3-0.3c0.4,0,0.8,0,1.2,0c0.3,0,0.3,0,0.3,0.3
				c0,0,0,0.1,0,0.1c0,5.2,0,10.4,0,15.5c0,0.1,0,0.2,0,0.3c0,0.2,0,0.2-0.2,0.2c-0.5,0-0.9,0-1.4,0c-0.2,0-0.2-0.1-0.2-0.2
				C76.7,24.1,76.7,23.6,76.7,23.1z"/>
			<path class="st0" d="M85,15.3c0,1.3,0,2.6,0,3.9c0,0.6,0,1.2,0.2,1.8c0.4,1.2,1.2,1.9,2.5,2.1c0.4,0.1,0.8,0.1,1.3,0.1
				c0.2,0,0.3,0.1,0.3,0.3c0,0.4,0,0.8,0,1.3c0,0.1-0.1,0.2-0.2,0.2c-0.9,0-1.8,0-2.7-0.3c-1.1-0.4-1.9-1.1-2.4-2.1
				c-0.5-1-0.8-2.1-0.8-3.2c0-2.8,0-5.7,0-8.5c0-0.6,0.1-0.5-0.5-0.5c-0.5,0-1,0-1.4,0c-0.2,0-0.3-0.1-0.3-0.3c0-0.5,0-0.9,0-1.4
				c0-0.2,0.1-0.3,0.3-0.3c0.5,0,1.1,0,1.6,0c0.2,0,0.3-0.1,0.3-0.3c0-0.9,0-1.7,0-2.6c0-0.4,0-0.4,0.4-0.4c0.4,0,0.8,0,1.1,0
				c0.3,0,0.3,0,0.3,0.4c0,0.8,0,1.6,0,2.4c0,0.1,0,0.2,0,0.3c0,0.1,0.1,0.2,0.2,0.2c0.1,0,0.2,0,0.3,0c1.1,0,2.2,0,3.4,0
				c0.4,0,0.4,0,0.4,0.4c0,0.4,0,0.8,0,1.1c0,0.4,0,0.4-0.4,0.4c-0.8,0-1.6,0-2.4,0c-0.3,0-0.6,0-1,0c-0.5,0-0.5-0.1-0.5,0.5
				c0,1.4,0,2.7,0,4.1C85,15,85,15.1,85,15.3L85,15.3z"/>
			<path class="st0" d="M38.2,10.1c0.2,0,0.2-0.1,0.3-0.1C39.7,8.7,41.3,8.1,43,8c0.4,0,0.8,0,1.3,0c0.3,0,0.4,0.1,0.4,0.4
				s0,0.7,0,1c0,0.2-0.1,0.3-0.3,0.3c-0.5,0-0.9,0-1.4,0c-2.5,0.1-4.4,1.9-4.7,4.4c0,0.4-0.1,0.8-0.1,1.2c0,3,0,6,0,9
				c0,0.6,0.1,0.5-0.5,0.5c-0.3,0-0.7,0-1,0c-0.4,0-0.3,0-0.3-0.4c0-1.1,0-2.2,0-3.4c0-4.1,0-8.2,0-12.3c0-0.5,0-0.5,0.5-0.5
				c0.4,0,0.8,0,1.1,0c0.2,0,0.3,0.1,0.2,0.3C38.2,9.1,38.2,9.6,38.2,10.1z"/>
			<path class="st1" d="M18.5,14.4c0.2,0.1,0.3,0.3,0.5,0.5c0.5,0.7,1.1,1.3,1.6,2c0.4,0.4,0.7,0.8,1.2,1.2c1,0.9,2,1.8,3.2,2.4
				c0.9,0.4,1.9,0.7,3,0.8c0.4,0,0.7,0.1,1.1,0.1c1.3,0,2.6-0.3,3.8-0.8c0.1,0,0.2-0.1,0.3-0.1c-0.7,1.4-1.8,2.3-3.3,2.8
				c-2.4,0.7-4.7,0.3-6.7-1.2c-1.5-1-2.6-2.5-3.4-4.1c-0.5-1-0.9-2.1-1.2-3.2C18.5,14.7,18.5,14.6,18.5,14.4z"/>
			<path class="st0" d="M62.3,16.7c0-0.5,0-0.9-0.1-1.3c-0.4-2.7-1.8-4.8-4.1-6.2c-3-1.9-6.9-1.3-9.2,0.8c-2.8,2.6-3.6,5.8-2.6,9.5
				c1,3.4,4.9,6.7,9.7,5.5C59.7,24.1,62.4,20.6,62.3,16.7z M57.5,22.5c-2.3,1.5-5.4,1.4-7.7-0.8c-1.3-1.2-1.9-2.7-2.1-4.5
				c-0.2-2.3,0.6-4.3,2.3-5.9c2.1-2,5.8-2.2,8.2,0.1c1.5,1.4,2.3,3.2,2.3,5.9C60.5,19.1,59.5,21.1,57.5,22.5z"/>
		</g>
		<g>
			<path class="st2" d="M32.4,34.8c-0.7,0-1.3-0.2-1.7-0.7l0.3-0.4c0.4,0.4,0.8,0.6,1.4,0.6c0.4,0,0.6-0.1,0.8-0.2
				c0.2-0.2,0.3-0.3,0.3-0.5c0-0.2,0-0.3-0.1-0.4C33.2,33.1,33,33,32.9,33c-0.2-0.1-0.3-0.1-0.5-0.2c-0.2,0-0.4-0.1-0.6-0.2
				c-0.2-0.1-0.4-0.1-0.5-0.2c-0.2-0.1-0.3-0.2-0.4-0.4c-0.1-0.2-0.1-0.3-0.1-0.5c0-0.4,0.1-0.6,0.4-0.9c0.3-0.2,0.6-0.3,1.1-0.3
				c0.6,0,1.2,0.2,1.6,0.6l-0.3,0.4c-0.3-0.4-0.7-0.5-1.3-0.5c-0.3,0-0.5,0.1-0.6,0.2c-0.2,0.1-0.3,0.3-0.3,0.5
				c0,0.2,0.1,0.3,0.2,0.4c0.1,0.1,0.3,0.2,0.5,0.2c0.2,0,0.4,0.1,0.6,0.2c0.2,0.1,0.4,0.2,0.6,0.2c0.2,0.1,0.4,0.2,0.5,0.4
				c0.1,0.2,0.2,0.4,0.2,0.6c0,0.4-0.1,0.7-0.4,0.9C33.3,34.7,32.9,34.8,32.4,34.8z"/>
			<path class="st2" d="M39.7,34.8c-0.6,0-1.2-0.2-1.6-0.6c-0.4-0.4-0.6-1-0.6-1.6s0.2-1.2,0.6-1.6c0.4-0.4,0.9-0.6,1.6-0.6
				s1.2,0.2,1.6,0.6c0.4,0.4,0.6,1,0.6,1.6s-0.2,1.2-0.6,1.6C40.9,34.6,40.4,34.8,39.7,34.8z M39.7,34.3c0.5,0,0.9-0.2,1.2-0.5
				c0.3-0.3,0.4-0.8,0.4-1.3c0-0.5-0.1-0.9-0.4-1.3c-0.3-0.3-0.7-0.5-1.2-0.5s-0.9,0.2-1.2,0.5c-0.3,0.3-0.4,0.8-0.4,1.3
				c0,0.5,0.1,0.9,0.4,1.3C38.8,34.2,39.2,34.3,39.7,34.3z"/>
			<path class="st2" d="M48.3,34.8h-2.6v-4.4h0.5v3.9h2V34.8z"/>
			<path class="st2" d="M54.9,34.4c-0.3,0.3-0.7,0.5-1.3,0.5s-1-0.2-1.3-0.5c-0.3-0.3-0.5-0.7-0.5-1.3v-2.7h0.5V33
				c0,0.4,0.1,0.7,0.3,1c0.2,0.2,0.5,0.4,0.9,0.4s0.7-0.1,0.9-0.4c0.2-0.2,0.3-0.6,0.3-1v-2.7h0.5v2.7C55.4,33.6,55.2,34,54.9,34.4z
				"/>
			<path class="st2" d="M61,34.8h-0.5v-3.9h-1.4v-0.5h3.3v0.5H61L61,34.8L61,34.8z"/>
			<path class="st2" d="M66.6,34.8h-0.5v-4.4h0.5V34.8z"/>
			<path class="st2" d="M72.6,34.8c-0.6,0-1.2-0.2-1.6-0.6c-0.4-0.4-0.6-1-0.6-1.6s0.2-1.2,0.6-1.6c0.4-0.4,0.9-0.6,1.6-0.6
				s1.2,0.2,1.6,0.6c0.4,0.4,0.6,1,0.6,1.6s-0.2,1.2-0.6,1.6C73.7,34.6,73.2,34.8,72.6,34.8z M72.6,34.3c0.5,0,0.9-0.2,1.2-0.5
				c0.3-0.3,0.4-0.8,0.4-1.3c0-0.5-0.1-0.9-0.4-1.3c-0.3-0.3-0.7-0.5-1.2-0.5c-0.5,0-0.9,0.2-1.2,0.5C71.1,31.6,71,32,71,32.6
				c0,0.5,0.1,0.9,0.4,1.3C71.7,34.2,72.1,34.3,72.6,34.3z"/>
			<path class="st2" d="M82.2,34.8h-0.5l-2.6-3.5v3.5h-0.5v-4.4h0.6l2.5,3.4v-3.4h0.5V34.8z"/>
			<path class="st2" d="M87.6,34.8c-0.7,0-1.3-0.2-1.7-0.7l0.3-0.4c0.4,0.4,0.8,0.6,1.4,0.6c0.4,0,0.6-0.1,0.8-0.2
				c0.2-0.2,0.3-0.3,0.3-0.5c0-0.2,0-0.3-0.1-0.4c-0.1-0.1-0.2-0.2-0.4-0.2c-0.2-0.1-0.3-0.1-0.5-0.2c-0.2,0-0.4-0.1-0.6-0.2
				c-0.2-0.1-0.4-0.1-0.5-0.2c-0.2-0.1-0.3-0.2-0.4-0.4S86,31.7,86,31.5c0-0.4,0.1-0.6,0.4-0.9c0.3-0.2,0.6-0.3,1.1-0.3
				c0.6,0,1.2,0.2,1.6,0.6l-0.3,0.4c-0.3-0.4-0.7-0.5-1.3-0.5c-0.3,0-0.5,0.1-0.6,0.2c-0.2,0.1-0.3,0.3-0.3,0.5
				c0,0.2,0.1,0.3,0.2,0.4c0.1,0.1,0.3,0.2,0.5,0.2c0.2,0,0.4,0.1,0.6,0.2c0.2,0.1,0.4,0.2,0.6,0.2c0.2,0.1,0.4,0.2,0.5,0.4
				c0.1,0.2,0.2,0.4,0.2,0.6c0,0.4-0.1,0.7-0.4,0.9C88.5,34.7,88.1,34.8,87.6,34.8z"/>
		</g>
	</g>
</g>
</svg>
