<?xml version="1.0" encoding="utf-8"?>
<!-- Generator: Adobe Illustrator 21.1.0, SVG Export Plug-In . SVG Version: 6.00 Build 0)  -->
<svg version="1.1" id="Layer_1" xmlns="http://www.w3.org/2000/svg" xmlns:xlink="http://www.w3.org/1999/xlink" x="0px" y="0px"
	 viewBox="0 0 1270.7 595.6" style="enable-background:new 0 0 1270.7 595.6;" xml:space="preserve">
<style type="text/css">
	.st0{fill:#6D9B41;}
	.st1{fill:#5B833B;}
</style>
<path class="st0" d="M263.8,268.5c1.7-2.7,4.6-2.4,7.1-2.5c9.9-1.1,19.9-1.4,29.8-1.1c24.9,0.9,49.4,4.1,73.4,11
	c21,6.1,40.6,15.4,58.1,28.7c7.8,6,14.8,12.9,20.9,20.4c1.1,1.3,2,2.5,3.6,4.2c2.7-4.9,3.3-10,3.9-14.9c4.1-26.5-0.6-50.7-18.4-71.6
	c-11.8-13.8-25.9-24.5-42.8-31.1c-39.5-15.4-77-12.2-111.6,13.7c-19.9,14.8-29.7,35-31.9,59.5c-2,23.5,2.5,46.1,9.3,68.6
	c10.5,34.4,26,66.5,43.8,97.9c27.6,49.1,59.5,95.2,94.5,139.2c0.9,1.3,2.5,2.2,2.7,4.1c-1.1,1.4-2.7,0.8-4.1,0.8
	c-7.1,0.2-14.1-0.2-21.2,0.2c-3.5,0.2-5.6-0.9-7.8-3.6c-35.1-46.9-68.6-95.1-95.9-147.2c-16.2-30.4-30.3-61.7-39.2-95.1
	c-5-19.3-9.4-38.8-8-58.8c2.4-36.1,16.6-66.4,45.3-89.1c14.9-11.8,32.2-18.5,50.8-21.7c25.1-4.2,50.1-3.6,74.4,4.6
	c49.1,16.6,77.2,50.7,84.6,101.8c3.3,22.1-0.2,43.3-9.3,63.6c-0.9,2-1.4,4.2-3.3,5.8c-12.9,8-27.3,10.7-41.7,12.6
	c-42.2,5.6-78.6-7.5-110.5-35c-19.6-16.8-36.2-36.2-51.9-56.6C266.6,274,265,271.3,263.8,268.5z"/>
<path class="st0" d="M0,341.8c8,0,15.2,0.2,22.6,0c2.5,0,3.8,0.9,4.2,3.5c0.6,3.1,1.3,6.1,2.4,9.1c6.1,16.8,18,28.1,34.2,34.8
	c17.3,7.4,35.5,9.4,54.1,8c10.7-0.6,20.9-2.5,30.9-6.6c6.9-3,13-7.1,18.8-11.9c16-13.2,17.6-44.9-5.6-57.9
	c-11.1-6.3-23.1-10.2-35.6-12.4c-15.1-2.8-30.3-5-45.3-7.7c-10.7-1.9-21-4.4-31.1-8.5c-2-0.9-4.2-1.7-6.3-2.7
	C3.8,271,7.7,226.1,27.6,205.4c9.6-9.9,20.6-17.6,33.6-21.5c29.3-9.3,58.7-9.4,87.7,1.3c28.4,10.7,44.9,31.5,51.2,60.9
	c0.9,4.2,0.6,4.4-3.9,4.6c-5.8,0.2-11.6-0.2-17.4,0.2c-3.1,0.2-4.7-0.9-5-4.1c-0.2-0.6-0.5-1.1-0.6-1.7c-6.3-19.1-19-31.9-38-37.8
	c-22.6-6.9-45.2-7.1-67.6,1.6c-5.3,2-10.2,4.6-14.6,8c-7.1,5.6-11.8,12.7-13.2,21.7c-1.9,11.3,2.5,20.6,12.4,26.2
	c9.1,5.3,19,8.2,29.2,10c14.6,2.7,29.5,4.9,44.1,7.5c12.2,2.2,24.3,5.2,35.8,9.9c7.2,2.8,14,6.4,20.1,11
	c18.7,14,25.7,33.1,23.4,55.5c-2.5,22.9-15.1,39.4-35.1,50.4c-15.2,8.2-31.7,12.2-48.8,13.2c-23.2,1.4-46-1.1-67.6-10
	C24.1,400.1,6.4,378.6,1.4,347C0.8,345.2,0.3,343.8,0,341.8z"/>
<path class="st0" d="M1092.9,392.4c-2.4,0.2-2.8,1.4-3.6,2.4c-15.7,15.7-34.7,24.2-56.6,26.8c-23.5,2.8-45.8-1.1-66.4-13.2
	c-25.7-15.2-39.9-38.4-44.9-67.6c-1.1-6.7-1.4-13.7-1.4-20.4c0-43.9,0-87.9,0-131.8c0-1.3,0-2.5,0-3.8c0-1.4,0.8-2.4,2.4-2.4
	c7.1,0,14.1,0,21.2,0c1.9,0,2.5,0.9,2.5,2.7c0,1.7,0,3.3,0,5c0,44.6,0.2,89.1,0,133.7c-0.2,17.4,4.9,33.1,15.8,46.6
	c12.4,15.4,28.7,23.4,48.2,25.4c20.9,2.4,40-2,56.6-15.2c18.2-14.4,25.9-33.9,26.2-56.6c0.3-26.7,0.2-53.5,0.2-80.2
	c0-18.8,0-37.7,0-56.6c0-4.7,0.2-4.9,4.7-4.9c5.6-0.2,11.1-0.2,16.8,0c4.6,0.2,4.6,0.2,4.7,4.9c0,0.6,0,1.3,0,1.9
	c0,73.8,0,147.5,0,221.3c0,1.3-0.2,2.5,0,3.8c0.2,2.4-0.6,3.5-3.1,3.3c-6.6-0.2-13.2-0.2-19.9,0.2c-2.5,0.2-3.1-1.1-3.1-3.5
	C1092.9,407.2,1092.9,400,1092.9,392.4z"/>
<path class="st0" d="M1210.8,280.7c0,18.4,0,36.9,0,55.2c0,8.5,0.2,16.9,3,25.3c5.8,16.9,17.4,27.1,35.1,30.3
	c6,1.1,11.9,1.3,17.9,1.1c3.1-0.2,3.9,1.1,3.9,3.9c-0.2,6.1-0.2,11.9,0,18c0,2-0.8,3-2.8,3c-12.9,0.2-25.7-0.2-38-4.7
	c-15.4-5.6-27.1-15.7-34.8-30.1c-7.7-14.4-11-29.8-11-46c-0.2-40.3,0-80.8,0-121.1c0-7.8,0.8-6.7-7.1-6.9c-6.9-0.2-13.7-0.2-20.6,0
	c-2.7,0.2-3.6-0.9-3.6-3.6c0.2-6.6,0.2-13.2,0-19.9c-0.2-3.1,1.3-3.9,4.1-3.8c7.7,0.2,15.4-0.2,22.9,0.2c3.3,0.2,4.2-1.1,4.1-4.2
	c-0.2-12.2-0.2-24.5-0.2-36.7c0-5.6,0-5.6,5.8-5.8c5.3,0,10.8-0.2,16.2,0c4.7,0.2,4.7,0.2,4.7,5c0.2,11.6,0,23.2,0,34.8
	c0,1.4,0.2,2.8,0,4.4c0,1.9,0.9,2.5,2.7,2.5c1.4,0,2.8,0,4.4,0c16,0,31.9,0,47.9,0c5,0,5,0.2,5,5.2c0,5.3,0,10.8,0,16.2
	c0,5.8,0,5.8-5.6,5.8c-11.5,0-22.8,0-34.2,0c-4.6,0-9.1,0-13.7,0c-7.1,0.2-6.4-0.9-6.4,6.9c0,19.5-0.2,38.9-0.2,58.4
	C1210.8,276.2,1210.8,278.5,1210.8,280.7L1210.8,280.7z"/>
<path class="st0" d="M544.7,206.8c2.2,0,2.7-1.3,3.6-2c17.9-17.7,39.9-26.4,64.8-27.3c6-0.3,11.9,0,18,0.3c4.9,0.3,5.5,1.3,5.6,6.3
	s-0.2,10,0.2,14.9c0.2,3-0.8,4.1-3.9,3.6c-6.6-0.6-13.2-0.6-19.9-0.3c-35.5,1.7-62.8,27-67.3,62.5c-0.6,5.8-0.9,11.6-0.9,17.4
	c0,43-0.2,85.8-0.2,128.7c0,7.8,0.8,6.7-7.1,6.9c-4.7,0.2-9.6,0-14.3,0c-5.3,0-4.9,0-4.9-5.3c0-16,0-31.9,0-47.9
	c0-58.4,0-116.9,0-175.3c0-7.5-0.6-6.6,6.6-6.7c5.3,0,10.8,0.2,16.2-0.2c2.7-0.2,3.6,0.9,3.5,3.6
	C544.5,192.9,544.7,199.8,544.7,206.8z"/>
<path class="st1" d="M263.8,268.5c3.1,1.7,4.4,4.9,6.4,7.4c7.2,9.9,15.4,18.8,23.2,28.1c5.3,6.1,10.7,12.1,16.6,17.6
	c14.1,13,28.7,25.4,46.3,33.7c13.3,6.3,27.3,10.2,42.1,11.6c5.3,0.5,10.7,1.3,16,1.1c18.5-0.6,36.4-3.8,53.5-11.3
	c1.6-0.6,3.1-1.3,4.7-1.1c-9.9,20.1-26,33.3-46.9,39.5c-34.5,10.4-66.7,3.6-96-16.6c-21.3-14.8-36.4-35.1-48.3-58.1
	c-7.5-14.6-13-29.8-16.9-45.8C263.6,272.6,263,270.5,263.8,268.5z"/>
<path class="st0" d="M888.1,301.3c-0.2-6.4-0.3-12.9-1.3-19.1c-6.1-38.4-25.1-68.3-58.2-89c-42.5-26.5-98.7-18.7-131.8,11.9
	c-40.2,37.2-51.9,82.7-36.7,135.3c14.1,48.8,70.5,95.7,138.7,78.6C850.6,405.9,888.8,356.2,888.1,301.3z M818.8,383.3
	c-32.2,21.7-77.2,20.1-109.5-11.1c-18-17.6-27.5-38.9-29.5-63.9c-2.5-33.4,8.9-61.4,33.3-84.1c30.3-28.2,82.1-31.7,116.9,1.1
	c21.2,19.9,32.2,45,32.2,83.5C861.6,336,847.5,363.9,818.8,383.3z"/>
</svg>
